<svg id="Group_1319" data-name="Group 1319" xmlns="http://www.w3.org/2000/svg" width="538.333" height="570.927"
     viewBox="0 0 538.333 570.927">
    <path id="Path_1631" data-name="Path 1631"
          d="M0,94.628,265.589,0,538.33,92.947,494.169,444.334,265.589,570.927l-225-124.909Z" fill="#3d3d3d"/>
    <path id="Path_1632" data-name="Path 1632" d="M1429.064,92.947,1156.32,0V570.927L1384.9,444.546l44.164-351.6Z"
          transform="translate(-890.731)" fill="#212121"/>
    <g id="slice" transform="translate(0 -3.167)">
        <g id="desk_1_" transform="translate(112.699 181.167)">
            <g id="Group_1319_3_" transform="translate(0 0)">
                <path id="Path_1631_3_"
                      d="M796.446,884.2q0,35.349-.018,70.69a63.867,63.867,0,0,1-.473,9.132c-1.364,9.259-7.01,14.923-16.308,15.892-18.09,1.883-36.2,3.535-54.316,5.191q-46.518,4.258-93.043,8.406-45.657,4.107-91.311,8.188c-8.406.753-16.8,1.647-25.222,2.235a36.157,36.157,0,0,1-10.373-.372c-9.123-2.069-14.684-9.277-14.691-18.607q-.052-74.4,0-148.8c0-1.164.025-2.327.09-3.489.641-11.218,6.665-18.294,17.8-19.569,17.488-2,35.036-3.505,52.57-5.108q51.734-4.727,103.482-9.334,45.863-4.114,91.738-8.2c5.216-.469,10.435-.953,15.646-1.488,15.651-1.608,24.432,6.254,24.432,21.917Q796.451,847.544,796.446,884.2Z"
                      transform="translate(-490.666 -788.764)" fill="#fff"/>
            </g>
        </g>
        <g id="knife_1_" transform="translate(182.728 207.987)">
            <g id="Group_1319_2_" transform="translate(0 0)">
                <path id="Path_1631_2_"
                      d="M905,1102.538c1.3.152,1.84.26,2.382.273a144.15,144.15,0,0,0,55.91-9.92c29.547-11.42,54.355-29.96,76.641-52.09a4.8,4.8,0,0,0,.59-4.311c-3.087-6.886-6.477-13.641-9.787-20.433-3.994-8.2-3.625-10.669,2.5-17.516,10.862-12.143,21.774-24.243,32.505-36.5,5.016-5.731,3.951-12.171-2.586-18.372-3.93-3.728-11.089-2.9-15.724,1.833-.609.622-1.178,1.291-1.762,1.936q-47.648,52.516-95.3,105.037C935.419,1068.954,920.485,1085.447,905,1102.538Z"
                      transform="translate(-905 -941.338)" fill="#212121"/>
                <path id="Path_1632_1_"
                      d="M905,1102.542c15.488-17.091,30.419-33.582,45.365-50.06q47.641-52.527,95.3-105.039c.586-.648,1.153-1.314,1.762-1.936,4.637-4.727,11.8-5.556,15.724-1.833,6.539,6.2,7.6,12.642,2.586,18.372-10.731,12.256-21.643,24.356-32.505,36.5-6.123,6.847-6.493,9.318-2.5,17.516,3.31,6.789,6.7,13.542,9.787,20.433a4.784,4.784,0,0,1-.59,4.311c-22.289,22.13-47.1,40.67-76.641,52.09a144.1,144.1,0,0,1-55.91,9.92C906.84,1102.8,906.3,1102.693,905,1102.542Z"
                      transform="translate(-905 -941.342)" fill="#212121"/>
            </g>
        </g>
    </g>
</svg>
