<svg width="572" height="572" viewBox="0 0 572 572" xmlns="http://www.w3.org/2000/svg"
>
    <g>
        <title>Ngx Slice</title>
        <path fill="#3d3d3d"
              d="m18,95.572444l265.589,-94.628l272.741,92.947l-44.161,351.387l-228.58,126.593l-225,-124.909l-40.589,-351.39z"
              id="Path_1631"/>
        <path fill="#212121" d="m556.277748,93.891444l-272.744,-92.947l0,570.927l228.58,-126.381l44.164,-351.6l0,0.001z"
              id="Path_1632"/>
        <g id="slice">
            <g id="desk_1_">
                <g id="Group_1319_3_">
                    <path fill="#fff"
                          d="m440.053735,274.154656q0,35.349 -0.018,70.69a63.867,63.867 0 0 1 -0.473,9.132c-1.364,9.259 -7.01,14.923 -16.308,15.892c-18.09,1.883 -36.2,3.535 -54.316,5.191q-46.518,4.258 -93.043,8.406q-45.657,4.107 -91.311,8.188c-8.406,0.753 -16.8,1.647 -25.222,2.235a36.157,36.157 0 0 1 -10.373,-0.372c-9.123,-2.069 -14.684,-9.277 -14.691,-18.607q-0.052,-74.4 0,-148.8c0,-1.164 0.025,-2.327 0.09,-3.489c0.641,-11.218 6.665,-18.294 17.8,-19.569c17.488,-2 35.036,-3.505 52.57,-5.108q51.734,-4.727 103.482,-9.334q45.863,-4.114 91.738,-8.2c5.216,-0.469 10.435,-0.953 15.646,-1.488c15.651,-1.608 24.432,6.254 24.432,21.917q0.002,36.66 -0.003,73.316z"
                          id="Path_1631_3_"/>
                </g>
            </g>
            <g id="knife_1_">
                <g id="Group_1319_2_">
                    <path fill="#212121"
                          d="m204.302719,366.738612c1.3,0.152 1.84,0.26 2.382,0.273a144.15,144.15 0 0 0 55.91,-9.92c29.547,-11.42 54.355,-29.96 76.641,-52.09a4.8,4.8 0 0 0 0.59,-4.311c-3.087,-6.886 -6.477,-13.641 -9.787,-20.433c-3.994,-8.2 -3.625,-10.669 2.5,-17.516c10.862,-12.143 21.774,-24.243 32.505,-36.5c5.016,-5.731 3.951,-12.171 -2.586,-18.372c-3.93,-3.728 -11.089,-2.9 -15.724,1.833c-0.609,0.622 -1.178,1.291 -1.762,1.936q-47.648,52.516 -95.3,105.037c-14.95,16.479 -29.884,32.972 -45.369,50.063z"
                          id="Path_1631_2_"/>
                    <path fill="#212121"
                          d="m204.302719,366.738645c15.488,-17.091 30.419,-33.582 45.365,-50.06q47.641,-52.527 95.3,-105.039c0.586,-0.648 1.153,-1.314 1.762,-1.936c4.637,-4.727 11.8,-5.556 15.724,-1.833c6.539,6.2 7.6,12.642 2.586,18.372c-10.731,12.256 -21.643,24.356 -32.505,36.5c-6.123,6.847 -6.493,9.318 -2.5,17.516c3.31,6.789 6.7,13.542 9.787,20.433a4.784,4.784 0 0 1 -0.59,4.311c-22.289,22.13 -47.1,40.67 -76.641,52.09a144.1,144.1 0 0 1 -55.91,9.92c-0.538,-0.016 -1.078,-0.123 -2.378,-0.274z"
                          id="Path_1632_1_"/>
                </g>
            </g>
        </g>
    </g>
</svg>
