<?xml version="1.0" encoding="UTF-8"?>
<svg width="116px" height="114px" viewBox="0 0 116 114" version="1.1" xmlns="http://www.w3.org/2000/svg"
>
    <!-- Generator: Sketch 61 (89581) - https://sketch.com -->
    <title>knife_black</title>
    <desc>Created with Sketch.</desc>
    <g id="Page-1" stroke="none" stroke-width="1" fill="none" fill-rule="evenodd">
        <g id="knife_black" transform="translate(0.500000, 0.200000)" fill="#212121" fill-rule="nonzero">
            <g id="Group_1319_2_">
                <path
                        d="M0,113.036585 C0.911585366,113.143171 1.2902439,113.218902 1.67030488,113.228018 C15.0706451,113.531647 28.3975582,111.16708 40.8754878,106.271921 C61.5944207,98.2639939 78.9902744,85.2633841 94.6176524,69.7453963 C95.2305842,68.8617054 95.3843297,67.7383208 95.031372,66.722439 C92.8667073,61.8938415 90.4895732,57.1571037 88.1685366,52.3944207 C85.3678659,46.6444207 85.6266159,44.9131098 89.9215854,40.1118598 C97.5382317,31.5969512 105.189939,23.1121951 112.714726,14.5173476 C116.232043,10.4986585 115.485244,5.98280488 110.901372,1.63454268 C108.145579,-0.979603659 103.125549,-0.398993902 99.8753963,2.91987805 C99.4483537,3.35603659 99.0493598,3.82515244 98.6398476,4.27743902 C76.365376,28.8276016 54.0899695,53.3789329 31.813628,77.9314329 C21.3303963,89.4868293 10.8583841,101.052043 0,113.036585 Z"
                        id="Path_1631_2_"></path>
                <path
                        d="M0,113.036585 C10.8604878,101.052043 21.3303963,89.4882317 31.8108232,77.9335366 C54.0820224,53.3782317 76.3574289,28.8264329 98.6370427,4.27814024 C99.0479573,3.82375 99.4455488,3.3567378 99.8725915,2.92057927 C103.124146,-0.394085366 108.146982,-0.975396341 110.898567,1.6352439 C115.483841,5.98280488 116.227835,10.500061 112.711921,14.5180488 C105.187134,23.1121951 97.5354268,31.5969512 89.9187805,40.112561 C85.6252134,44.913811 85.3657622,46.6465244 88.1657317,52.395122 C90.4867683,57.1557012 92.8639024,61.8910366 95.0285671,66.7231402 C95.3833976,67.7388349 95.2295329,68.8630901 94.6148476,69.7460976 C78.9853659,85.2640854 61.5874085,98.2646951 40.8726829,106.272622 C28.3950081,111.168685 15.067912,113.533285 1.6675,113.22872 C1.2902439,113.2175 0.911585366,113.14247 0,113.036585 Z"
                        id="Path_1632_1_"></path>
            </g>
        </g>
    </g>
</svg>
