<svg height="24px" viewBox="0 0 32 32" width="24px" xmlns="http://www.w3.org/2000/svg">
    <path
        d="M1.333 7.327c0-1.469 1.19-2.66 2.66-2.66h24.013c1.469 0 2.66 1.19 2.66 2.66v18.68c0 1.469-1.19 2.66-2.66 2.66h-24.013c-1.469 0-2.66-1.19-2.66-2.66v-18.68zM4 26h24v-18.667h-24v18.667zM5.333 14.677v-1.419c0.659-0.029 1.119-0.073 1.383-0.132 0.42-0.093 0.761-0.278 1.024-0.556 0.181-0.19 0.317-0.444 0.41-0.761 0.054-0.19 0.081-0.332 0.081-0.424h1.734v10.61h-2.137v-7.317h-2.495zM13.626 20.128c0.271 0.288 0.645 0.432 1.123 0.432s0.852-0.144 1.123-0.432c0.271-0.288 0.406-0.693 0.406-1.215 0-0.541-0.138-0.952-0.413-1.233s-0.648-0.421-1.116-0.421c-0.468 0-0.84 0.14-1.116 0.421s-0.413 0.691-0.413 1.233c0 0.522 0.135 0.927 0.406 1.215zM11.46 17.436c0.271-0.483 0.667-0.846 1.189-1.090-0.512-0.341-0.845-0.711-0.999-1.108s-0.23-0.77-0.23-1.116c0-0.771 0.29-1.428 0.871-1.972s1.4-0.816 2.458-0.816c1.059 0 1.878 0.272 2.459 0.816s0.871 1.201 0.871 1.972c0 0.346-0.077 0.718-0.23 1.116s-0.487 0.743-0.999 1.035c0.522 0.293 0.915 0.68 1.178 1.163s0.395 1.022 0.395 1.617c0 0.893-0.33 1.652-0.991 2.279s-1.584 0.94-2.769 0.94c-1.185 0-2.083-0.313-2.693-0.94s-0.915-1.387-0.915-2.279c0-0.595 0.135-1.134 0.406-1.617zM13.765 15.299c0.237 0.244 0.565 0.366 0.984 0.366 0.424 0 0.752-0.122 0.984-0.366s0.348-0.559 0.348-0.944c0-0.419-0.116-0.748-0.348-0.984s-0.56-0.355-0.984-0.355c-0.419 0-0.748 0.118-0.984 0.355s-0.355 0.565-0.355 0.984c0 0.385 0.118 0.7 0.355 0.944zM22.667 14h-2.667v1.333h2.667v2.667h1.333v-2.667h2.667v-1.333h-2.667v-2.667h-1.333v2.667z"
        fill="var(--base)" fill-opacity="1"></path>
</svg>
