<svg xmlns="http://www.w3.org/2000/svg" style="display: none;">

    <symbol id="add" viewBox="0 0 24 24" fill="none">
        <path
                d="M12 2C11.4477 2 11 2.44772 11 3V11H3C2.44772 11 2 11.4477 2 12C2 12.5523 2.44772 13 3 13H11V21C11 21.5523 11.4477 22 12 22C12.5523 22 13 21.5523 13 21V13H21C21.5523 13 22 12.5523 22 12C22 11.4477 21.5523 11 21 11H13V3C13 2.44772 12.5523 2 12 2Z"
                fill="#FFFFFF" fill-opacity="1"/>
    </symbol>

    <symbol id="check" viewBox="0 0 24 24" fill="none">
        <path fill-rule="evenodd" clip-rule="evenodd"
              d="M20.6402 5.23178C21.0645 5.58535 21.1218 6.21591 20.7682 6.64019L10.7682 18.6402C10.5884 18.856 10.326 18.9862 10.0453 18.999C9.76464 19.0117 9.49156 18.9058 9.29289 18.7071L3.29289 12.7071C2.90237 12.3166 2.90237 11.6834 3.29289 11.2929C3.68342 10.9024 4.31658 10.9024 4.70711 11.2929L9.9328 16.5186L19.2318 5.35982C19.5853 4.93554 20.2159 4.87822 20.6402 5.23178Z"
              fill="#FFFFFF" fill-opacity="1"/>
    </symbol>

    <symbol id="chevron_down" viewBox="0 0 24 24" fill="none">
        <path fill-rule="evenodd" clip-rule="evenodd"
              d="M5.18355 9.33149C4.72495 8.81557 5.0912 8 5.78147 8H18.2185C18.9088 8 19.275 8.81557 18.8165 9.33149L12.7474 16.1592C12.3496 16.6067 11.6504 16.6067 11.2526 16.1592L5.18355 9.33149Z"
              fill="#FFFFFF" fill-opacity="1"/>
    </symbol>

    <symbol id="chevron_left" viewBox="0 0 24 24" fill="none">
        <path fill-rule="evenodd" clip-rule="evenodd"
              d="M14.1677 5.20305C14.6839 4.74577 15.5 5.11097 15.5 5.79927L15.5 18.2007C15.5 18.889 14.6839 19.2542 14.1677 18.7969L7.33584 12.7453C6.88805 12.3486 6.88805 11.6514 7.33584 11.2547L14.1677 5.20305Z"
              fill="#FFFFFF" fill-opacity="1"/>
    </symbol>

    <symbol id="chevron_right" viewBox="0 0 24 24" fill="none">
        <path fill-rule="evenodd" clip-rule="evenodd"
              d="M8.33231 18.7969C7.81607 19.2542 7 18.889 7 18.2007L7 5.79927C7 5.11097 7.81607 4.74577 8.33231 5.20305L15.1642 11.2547C15.6119 11.6514 15.6119 12.3486 15.1642 12.7453L8.33231 18.7969Z"
              fill="#FFFFFF" fill-opacity="1"/>
    </symbol>

    <symbol id="chevron_up" viewBox="0 0 24 24" fill="none">
        <path fill-rule="evenodd" clip-rule="evenodd"
              d="M18.8165 15.6685C19.2751 16.1844 18.9088 17 18.2185 17L5.78148 17C5.0912 17 4.72496 16.1844 5.18356 15.6685L11.2526 8.84083C11.6504 8.39332 12.3496 8.39332 12.7474 8.84083L18.8165 15.6685Z"
              fill="#FFFFFF" fill-opacity="1"/>
    </symbol>

    <symbol id="close" viewBox="0 0 24 24" fill="none">
        <path fill-rule="evenodd" clip-rule="evenodd"
              d="M4.33474 4.33474C3.88842 4.78105 3.88842 5.50467 4.33474 5.95098L10.3838 12L4.33474 18.049C3.88842 18.4953 3.88842 19.219 4.33474 19.6653C4.78105 20.1116 5.50467 20.1116 5.95098 19.6653L12 13.6162L18.049 19.6653C18.4953 20.1116 19.219 20.1116 19.6653 19.6653C20.1116 19.219 20.1116 18.4953 19.6653 18.049L13.6162 12L19.6653 5.95098C20.1116 5.50467 20.1116 4.78105 19.6653 4.33474C19.219 3.88842 18.4953 3.88842 18.049 4.33474L12 10.3838L5.95098 4.33474C5.50467 3.88842 4.78105 3.88842 4.33474 4.33474Z"
              fill="#FFFFFF" fill-opacity="1"/>
    </symbol>

    <symbol id="dots_x" viewBox="0 0 24 24" fill="none">
        <path
                d="M18 14C16.8954 14 16 13.1046 16 12C16 10.8954 16.8954 10 18 10C19.1046 10 20 10.8954 20 12C20 13.1046 19.1046 14 18 14Z"
                fill="#FFFFFF" fill-opacity="1"/>
        <path
                d="M12 14C10.8954 14 10 13.1046 10 12C10 10.8954 10.8954 10 12 10C13.1046 10 14 10.8954 14 12C14 13.1046 13.1046 14 12 14Z"
                fill="#FFFFFF" fill-opacity="1"/>
        <path
                d="M4 12C4 13.1046 4.89543 14 6 14C7.10457 14 8 13.1046 8 12C8 10.8954 7.10457 10 6 10C4.89543 10 4 10.8954 4 12Z"
                fill="#FFFFFF" fill-opacity="1"/>
    </symbol>

    <symbol id="dots_y" viewBox="0 0 24 24" fill="none">
        <path fill-rule="evenodd" clip-rule="evenodd"
              d="M14 6C14 7.10457 13.1046 8 12 8C10.8954 8 10 7.10457 10 6C10 4.89543 10.8954 4 12 4C13.1046 4 14 4.89543 14 6ZM14 12C14 13.1046 13.1046 14 12 14C10.8954 14 10 13.1046 10 12C10 10.8954 10.8954 10 12 10C13.1046 10 14 10.8954 14 12ZM12 20C13.1046 20 14 19.1046 14 18C14 16.8954 13.1046 16 12 16C10.8954 16 10 16.8954 10 18C10 19.1046 10.8954 20 12 20Z"
              fill="#FFFFFF" fill-opacity="1"/>
    </symbol>

    <symbol id="donwload" viewBox="0 0 24 24" fill="none">
        <path fill-rule="evenodd" clip-rule="evenodd"
              d="M10.9977 2.92638C10.9977 2.68878 11.0348 2.53963 11.1045 2.40926C11.1742 2.27889 11.2766 2.17658 11.4069 2.10685C11.5373 2.03713 11.6864 2 11.924 2H12.0713C12.3089 2 12.458 2.03713 12.5884 2.10685C12.7188 2.17658 12.8211 2.27889 12.8908 2.40926C12.9605 2.53963 12.9977 2.68878 12.9977 2.92638V14.9194L16.4186 12.1814C16.772 11.8982 17.2881 11.9552 17.5712 12.3086L17.8276 12.6286C18.0935 12.9605 18.04 13.4451 17.7081 13.711L17.6224 13.7809L12.6224 17.7809C12.2571 18.073 11.7382 18.073 11.373 17.7809L6.28859 13.711C5.95671 13.4451 5.90321 12.9605 6.1691 12.6286L6.42545 12.3086C6.7086 11.9552 7.22466 11.8982 7.5781 12.1814L8.49836 12.9199L10.9977 14.9194V2.92638ZM2 20C1.44772 20 1 20.4477 1 21C1 21.5523 1.44772 22 2 22H22C22.5523 22 23 21.5523 23 21C23 20.4477 22.5523 20 22 20H2Z"
              fill="#FFFFFF" fill-opacity="1"/>
    </symbol>

    <symbol id="file" viewBox="0 0 24 24" fill="none">
        <path
                d="M3 20V4C3 2.34315 4.34315 1 6 1H12V7C12 8.65685 13.3431 10 15 10H21V20C21 21.6569 19.6569 23 18 23H6C4.34315 23 3 21.6569 3 20Z"
                fill="#FFFFFF" fill-opacity="1"/>
        <path d="M13.5 6.5V1L21 8.5H15.5C14.3954 8.5 13.5 7.60457 13.5 6.5Z" fill="#FFFFFF" fill-opacity="1"/>
    </symbol>

    <symbol id="folder" viewBox="0 0 24 24" fill="none">
        <path
                d="M9.32906 3H2C0.895431 3 0 3.89543 0 5V9H24V8C24 6.89543 23.1046 6 22 6H14.1709C13.429 6 12.7254 5.67044 12.2504 5.10046L11.2496 3.89954C10.7746 3.32956 10.071 3 9.32906 3Z"
                fill="#FFFFFF" fill-opacity="1"/>
        <path d="M24 10.5H0V20C0 21.1046 0.89543 22 2 22H22C23.1046 22 24 21.1046 24 20V10.5Z" fill="#FFFFFF"
              fill-opacity="1"/>
    </symbol>

    <symbol id="heart" viewBox="0 0 24 24" fill="none">
        <path fill-rule="evenodd" clip-rule="evenodd"
              d="M1 8.20063C1 12.7646 8.00549 18.8409 10.826 21.1023C11.5084 21.6494 12.4562 21.6502 13.1394 21.1042C15.9677 18.8442 23 12.7658 23 8.20063C23 4.3911 20.2447 2 17.0417 2C13.8386 2 12 5.3388 12 5.3388C12 5.3388 10.1614 2 6.95833 2C3.29767 2 1 4.8673 1 8.20063Z"
              fill="#FFFFFF" fill-opacity="1"/>
    </symbol>

    <symbol id="menu" viewBox="0 0 24 24" fill="none">
        <path fill-rule="evenodd" clip-rule="evenodd"
              d="M2 8C2 7.44772 2.44772 7 3 7H21C21.5523 7 22 7.44772 22 8C22 8.55228 21.5523 9 21 9H3C2.44772 9 2 8.55228 2 8ZM2 12C2 11.4477 2.44772 11 3 11H21C21.5523 11 22 11.4477 22 12C22 12.5523 21.5523 13 21 13H3C2.44772 13 2 12.5523 2 12ZM3 15C2.44772 15 2 15.4477 2 16C2 16.5523 2.44772 17 3 17H21C21.5523 17 22 16.5523 22 16C22 15.4477 21.5523 15 21 15H3Z"
              fill="#FFFFFF" fill-opacity="1"/>
    </symbol>

    <symbol id="ngx-slice" data-name="Group 1319" viewBox="0 0 538.333 570.927">
        <path id="Path_1631" data-name="Path 1631"
              d="M0,94.628,265.589,0,538.33,92.947,494.169,444.334,265.589,570.927l-225-124.909Z" fill="#3d3d3d"/>
        <path id="Path_1632" data-name="Path 1632" d="M1429.064,92.947,1156.32,0V570.927L1384.9,444.546l44.164-351.6Z"
              transform="translate(-890.731)" fill="#212121"/>
        <g id="slice" transform="translate(0 -3.167)">
            <g id="desk_1_" transform="translate(112.699 181.167)">
                <g id="Group_1319_3_" transform="translate(0 0)">
                    <path id="Path_1631_3_"
                          d="M796.446,884.2q0,35.349-.018,70.69a63.867,63.867,0,0,1-.473,9.132c-1.364,9.259-7.01,14.923-16.308,15.892-18.09,1.883-36.2,3.535-54.316,5.191q-46.518,4.258-93.043,8.406-45.657,4.107-91.311,8.188c-8.406.753-16.8,1.647-25.222,2.235a36.157,36.157,0,0,1-10.373-.372c-9.123-2.069-14.684-9.277-14.691-18.607q-.052-74.4,0-148.8c0-1.164.025-2.327.09-3.489.641-11.218,6.665-18.294,17.8-19.569,17.488-2,35.036-3.505,52.57-5.108q51.734-4.727,103.482-9.334,45.863-4.114,91.738-8.2c5.216-.469,10.435-.953,15.646-1.488,15.651-1.608,24.432,6.254,24.432,21.917Q796.451,847.544,796.446,884.2Z"
                          transform="translate(-490.666 -788.764)" fill="#fff"/>
                </g>
            </g>
            <g id="knife_1_" transform="translate(182.728 207.987)">
                <g id="Group_1319_2_" transform="translate(0 0)">
                    <path id="Path_1631_2_"
                          d="M905,1102.538c1.3.152,1.84.26,2.382.273a144.15,144.15,0,0,0,55.91-9.92c29.547-11.42,54.355-29.96,76.641-52.09a4.8,4.8,0,0,0,.59-4.311c-3.087-6.886-6.477-13.641-9.787-20.433-3.994-8.2-3.625-10.669,2.5-17.516,10.862-12.143,21.774-24.243,32.505-36.5,5.016-5.731,3.951-12.171-2.586-18.372-3.93-3.728-11.089-2.9-15.724,1.833-.609.622-1.178,1.291-1.762,1.936q-47.648,52.516-95.3,105.037C935.419,1068.954,920.485,1085.447,905,1102.538Z"
                          transform="translate(-905 -941.338)" fill="#212121"/>
                    <path id="Path_1632_1_"
                          d="M905,1102.542c15.488-17.091,30.419-33.582,45.365-50.06q47.641-52.527,95.3-105.039c.586-.648,1.153-1.314,1.762-1.936,4.637-4.727,11.8-5.556,15.724-1.833,6.539,6.2,7.6,12.642,2.586,18.372-10.731,12.256-21.643,24.356-32.505,36.5-6.123,6.847-6.493,9.318-2.5,17.516,3.31,6.789,6.7,13.542,9.787,20.433a4.784,4.784,0,0,1-.59,4.311c-22.289,22.13-47.1,40.67-76.641,52.09a144.1,144.1,0,0,1-55.91,9.92C906.84,1102.8,906.3,1102.693,905,1102.542Z"
                          transform="translate(-905 -941.342)" fill="#212121"/>
                </g>
            </g>
        </g>
    </symbol>

    <symbol id="notification" viewBox="0 0 24 24" fill="none">
        <path
                d="M6 13L6.54732 6.97947C6.8037 4.15932 9.16823 2 12 2C14.8318 2 17.1963 4.15933 17.4527 6.97947L18 13L20.2929 15.2929C20.9229 15.9229 20.4767 17 19.5858 17H4.41421C3.52331 17 3.07714 15.9229 3.70711 15.2929L6 13Z"
                fill="#FFFFFF" fill-opacity="1"/>
        <path
                d="M16 18.5H8L8.00503 18.5352C8.28904 20.5233 9.99171 22 12 22C14.0083 22 15.711 20.5233 15.995 18.5352L16 18.5Z"
                fill="#FFFFFF" fill-opacity="1"/>
    </symbol>

    <symbol id="placeholder" viewBox="0 0 24 24" fill="none">
        <path fill-rule="evenodd" clip-rule="evenodd"
              d="M0.653961 3.27606C0 4.55953 0 6.23969 0 9.6V14.4C0 17.7603 0 19.4405 0.653961 20.7239C1.2292 21.8529 2.14708 22.7708 3.27606 23.346C4.55953 24 6.23969 24 9.6 24H14.4C17.7603 24 19.4405 24 20.7239 23.346C21.8529 22.7708 22.7708 21.8529 23.346 20.7239C24 19.4405 24 17.7603 24 14.4V9.6C24 6.23969 24 4.55953 23.346 3.27606C22.7708 2.14708 21.8529 1.2292 20.7239 0.653961C19.4405 0 17.7603 0 14.4 0H9.6C6.23969 0 4.55953 0 3.27606 0.653961C2.14708 1.2292 1.2292 2.14708 0.653961 3.27606ZM2.43597 4.18404C2 5.03968 2 6.15979 2 8.4V15.6C2 17.8402 2 18.9603 2.43597 19.816C2.81947 20.5686 3.43139 21.1805 4.18404 21.564C5.03968 22 6.15979 22 8.4 22H15.6C17.8402 22 18.9603 22 19.816 21.564C20.5686 21.1805 21.1805 20.5686 21.564 19.816C22 18.9603 22 17.8402 22 15.6V8.4C22 6.15979 22 5.03968 21.564 4.18404C21.1805 3.43139 20.5686 2.81947 19.816 2.43597C18.9603 2 17.8402 2 15.6 2H8.4C6.15979 2 5.03968 2 4.18404 2.43597C3.43139 2.81947 2.81947 3.43139 2.43597 4.18404Z"
              fill="#FFFFFF" fill-opacity="1"/>
    </symbol>

    <symbol id="remove" viewBox="0 0 24 24" fill="none">
        <path
                d="M3 11C2.44772 11 2 11.4477 2 12C2 12.5523 2.44772 13 3 13L12 13L21 13C21.5523 13 22 12.5523 22 12C22 11.4477 21.5523 11 21 11H3Z"
                fill="#FFFFFF" fill-opacity="1"/>
    </symbol>

    <symbol id="search" viewBox="0 0 24 24" fill="none">
        <path fill-rule="evenodd" clip-rule="evenodd"
              d="M16.3199 14.9056L21.7071 20.2929C22.0976 20.6834 22.0976 21.3166 21.7071 21.7071C21.3166 22.0976 20.6834 22.0976 20.2929 21.7071L14.9056 16.3199C13.551 17.3729 11.8487 18 10 18C5.58172 18 2 14.4183 2 10C2 5.58172 5.58172 2 10 2C14.4183 2 18 5.58172 18 10C18 11.8487 17.3729 13.551 16.3199 14.9056ZM10 16C13.3137 16 16 13.3137 16 10C16 6.68629 13.3137 4 10 4C6.68629 4 4 6.68629 4 10C4 13.3137 6.68629 16 10 16Z"
              fill="#FFFFFF" fill-opacity="1"/>
    </symbol>

    <symbol id="settings" viewBox="0 0 24 24" fill="none">
        <path fill-rule="evenodd" clip-rule="evenodd"
              d="M10.1667 2.83333C10.1667 1.82081 10.9875 1 12 1C13.0125 1 13.8333 1.82081 13.8333 2.83333C13.8333 4.58273 15.9484 5.45884 17.1854 4.22183C17.9014 3.50586 19.0622 3.50586 19.7782 4.22183C20.4941 4.93779 20.4941 6.09859 19.7782 6.81455C18.5412 8.05156 19.4173 10.1667 21.1667 10.1667C22.1792 10.1667 23 10.9875 23 12C23 13.0125 22.1792 13.8333 21.1667 13.8333C19.4173 13.8333 18.5412 15.9484 19.7782 17.1854C20.4941 17.9014 20.4941 19.0622 19.7782 19.7782C19.0622 20.4941 17.9014 20.4941 17.1854 19.7782C15.9484 18.5412 13.8333 19.4173 13.8333 21.1667C13.8333 22.1792 13.0125 23 12 23C10.9875 23 10.1667 22.1792 10.1667 21.1667C10.1667 19.4173 8.05156 18.5412 6.81454 19.7782C6.09858 20.4941 4.93778 20.4941 4.22182 19.7782C3.50586 19.0622 3.50586 17.9014 4.22182 17.1854C5.45883 15.9484 4.58273 13.8333 2.83333 13.8333C1.82081 13.8333 1 13.0125 1 12C1 10.9875 1.82081 10.1667 2.83333 10.1667C4.58273 10.1667 5.45883 8.05156 4.22182 6.81455C3.50586 6.09859 3.50586 4.93779 4.22182 4.22183C4.93778 3.50586 6.09859 3.50586 6.81455 4.22183C8.05156 5.45884 10.1667 4.58274 10.1667 2.83333ZM12 17C14.7614 17 17 14.7614 17 12C17 9.23858 14.7614 7 12 7C9.23858 7 7 9.23858 7 12C7 14.7614 9.23858 17 12 17Z"
              fill="#FFFFFF" fill-opacity="1"/>
    </symbol>

    <symbol id="star" viewBox="0 0 24 24" fill="none">
        <path fill-rule="evenodd" clip-rule="evenodd"
              d="M12.5258 19.6326C12.2041 19.4298 11.7959 19.4298 11.4743 19.6326L6.37805 22.8449C5.63357 23.3142 4.69615 22.6486 4.88305 21.7835L6.23302 15.5345C6.30826 15.1862 6.19409 14.8238 5.9333 14.5832L1.32382 10.3307C0.689069 9.7451 1.04368 8.67791 1.90012 8.59636L7.91307 8.02379C8.2806 7.9888 8.59846 7.75086 8.73811 7.40619L11.0817 1.62203C11.4178 0.792656 12.5823 0.792657 12.9183 1.62203L15.2619 7.40619C15.4016 7.75086 15.7194 7.9888 16.087 8.02379L22.0999 8.59636C22.9563 8.67791 23.311 9.7451 22.6762 10.3307L18.0667 14.5832C17.8059 14.8238 17.6918 15.1862 17.767 15.5345L19.117 21.7835C19.3039 22.6486 18.3665 23.3142 17.622 22.8449L12.5258 19.6326Z"
              fill="#FFFFFF" fill-opacity="1"/>
    </symbol>

    <symbol id="trash" viewBox="0 0 24 24" fill="none">
        <path
                d="M3 4.5V4C3 3.44772 3.44772 3 4 3H8.5L8.94721 2.10557C9.286 1.428 9.97852 1 10.7361 1H13.2639C14.0215 1 14.714 1.428 15.0528 2.10557L15.5 3H20C20.5523 3 21 3.44772 21 4V4.5C21 5.05228 20.5523 5.5 20 5.5H4C3.44772 5.5 3 5.05228 3 4.5Z"
                fill="#FFFFFF" fill-opacity="1"/>
        <path
                d="M17.9019 7H6.09813C5.50898 7 5.04751 7.50676 5.1025 8.09334L6.245 20.28C6.38953 21.8216 7.68354 23 9.2319 23H14.7681C16.3165 23 17.6105 21.8216 17.755 20.28L18.8975 8.09334C18.9525 7.50676 18.491 7 17.9019 7Z"
                fill="#FFFFFF" fill-opacity="1"/>
    </symbol>

    <symbol id="user" viewBox="0 0 24 24" fill="none">
        <path
                d="M14.08 13.232C13.7969 13.1188 13.8453 12.7191 14.1304 12.6108C16.3924 11.7514 18 9.56345 18 7C18 3.68629 15.3137 1 12 1C8.68629 1 6 3.68629 6 7C6 9.56345 7.60759 11.7514 9.86961 12.6108C10.1547 12.7191 10.2031 13.1188 9.91995 13.232L6.77166 14.4913C4.49371 15.4025 3 17.6088 3 20.0622V21C3 22.1046 3.89543 23 6 23H18C20.1046 23 21 22.1046 21 21V20.0622C21 17.6088 19.5063 15.4025 17.2283 14.4913L14.08 13.232Z"
                fill="#FFFFFF" fill-opacity="1"/>
    </symbol>

</svg>
