<?xml version="1.0" encoding="UTF-8"?>
<svg width="24px" height="24px" viewBox="0 0 24 24" version="1.1" xmlns="http://www.w3.org/2000/svg"
>
  <g id="Page-1" stroke="none" stroke-width="1" fill="none" fill-rule="evenodd">
    <g id="error-caption" fill="#262626">
      <path
        d="M6.82842,1.171572 C7.57858,0.421426 8.59598,0 9.65686,0 L14.34314,0 C15.40402,0 16.42142,0.421428 17.17158,1.171572 L22.8284,6.82842 C23.5786,7.57858 24,8.59598 24,9.65686 L24,14.34314 C24,15.40402 23.5786,16.42142 22.8284,17.17158 L17.17158,22.8284 C16.42142,23.5786 15.40402,24 14.34314,24 L9.65686,24 C8.59598,24 7.57858,23.5786 6.82842,22.8284 L1.171572,17.17158 C0.421426,16.42142 0,15.40402 0,14.34314 L0,9.65686 C0,8.59598 0.421428,7.57858 1.171572,6.82842 L6.82842,1.171572 Z M12,4 C12.99962,4 13.80998,4.81036 13.80998,5.80998 C13.80998,5.87012 13.80698,5.93022 13.801,5.99008 L13.0995,13.00496 C13.04302,13.56984 12.56768,14 12,14 C11.43232,14 10.95698,13.56984 10.9005,13.00496 L10.199,5.99008 C10.09954,4.99542 10.82524,4.10844 11.8199,4.00898 C11.87974,4.003 11.93986,4 12,4 Z M14,18 C14,16.89542 13.10456,16 12,16 C10.89544,16 10,16.89542 10,18 C10,19.10458 10.89544,20 12,20 C13.10456,20 14,19.10458 14,18 Z"
        id="Shape"></path>
    </g>
  </g>
</svg>
