<svg height="24px" viewBox="0 0 32 32" width="24px" xmlns="http://www.w3.org/2000/svg">
    <path d="M15.206 6.319c0.439-0.422 1.154-0.428 1.589 0 0 0 7.206 6.422 7.206 13.015 0 4.704-3.451 8-8 8-4.339 0-8-3.296-8-8 0-6.592 7.206-13.015 7.206-13.015zM16 24.667c3.139 0 5.333-2.164 5.333-5.333 0-2.201-1.136-4.771-3.078-7.391-0.717-0.967-1.489-1.867-2.26-2.672-0.455-0.475-0.799-0.804-1.069-1.049 0.603 0.592 1.536 0.59 2.054 0.089-0.175 0.156-0.519 0.485-0.975 0.961-0.771 0.805-1.544 1.706-2.26 2.672-1.943 2.62-3.078 5.191-3.078 7.391 0 3.087 2.319 5.333 5.333 5.333z" fill="var(--base)"
          fill="var(--base)"
          fill-opacity="1" fill-opacity="1"></path>
</svg>
