<svg height="24px" viewBox="0 0 32 32" width="24px" xmlns="http://www.w3.org/2000/svg">
    <path
        d="M12 15.333h-2.667v2.667h2.667v-2.667zM17.333 15.333h-2.667v2.667h2.667v-2.667zM22.667 15.333h-2.667v2.667h2.667v-2.667zM12 20.667h-2.667v2.667h2.667v-2.667zM17.333 20.667h-2.667v2.667h2.667v-2.667zM22.667 20.667h-2.667v2.667h2.667v-2.667zM25.333 6h-1.333v-2.667h-2.667v2.667h-10.667v-2.667h-2.667v2.667h-1.333c-1.48 0-2.653 1.2-2.653 2.667l-0.013 18.667c0 1.467 1.187 2.667 2.667 2.667h18.667c1.467 0 2.667-1.2 2.667-2.667v-18.667c0-1.467-1.2-2.667-2.667-2.667v0zM6.667 27.333v-16h18.667v16h-18.667z"
        fill="var(--base)" fill-opacity="1"></path>
</svg>
