<svg xmlns="http://www.w3.org/2000/svg" width="24px" height="24px" viewBox="0 0 32 32">
    <path
        d="M25.227 7.347c-0.267-0.787-1.013-1.347-1.893-1.347h-14.667c-0.88 0-1.613 0.56-1.893 1.347l-2.773 7.987v10.667c0 0.733 0.6 1.333 1.333 1.333h1.333c0.733 0 1.333-0.6 1.333-1.333v-1.333h16v1.333c0 0.733 0.6 1.333 1.333 1.333h1.333c0.733 0 1.333-0.6 1.333-1.333v-10.667l-2.773-7.987zM8.667 20.667c-1.107 0-2-0.893-2-2s0.893-2 2-2c1.107 0 2 0.893 2 2s-0.893 2-2 2v0zM23.333 20.667c-1.107 0-2-0.893-2-2s0.893-2 2-2c1.107 0 2 0.893 2 2s-0.893 2-2 2v0zM6.667 14l2-6h14.667l2 6h-18.667z"
        fill="var(--regular-text)" fill-opacity="1"></path>
</svg>
