<svg xmlns="http://www.w3.org/2000/svg" width="24px" height="24px" viewBox="0 0 32 32">
  <path
    d="M16 30c-7.364 0-13.333-5.97-13.333-13.333s5.97-13.333 13.333-13.333c7.364 0 13.333 5.97 13.333 13.333s-5.97 13.333-13.333 13.333zM16 14.588l-4.154-4.154c-0.568-0.568-1.507-0.577-2.081-0.003-0.578 0.578-0.573 1.506 0.003 2.081l4.154 4.154-4.154 4.154c-0.568 0.568-0.577 1.507-0.003 2.081 0.578 0.578 1.506 0.573 2.081-0.003l4.154-4.154 4.154 4.154c0.568 0.568 1.507 0.577 2.081 0.003 0.578-0.578 0.573-1.506-0.003-2.081l-4.154-4.154 4.154-4.154c0.568-0.568 0.577-1.507 0.003-2.081-0.578-0.578-1.506-0.573-2.081 0.003l-4.154 4.154z"
    fill="var(--regular-text)" fill-opacity="1"></path>
</svg>
