<svg width="24" height="24" viewBox="0 0 24 24" fill="none" xmlns="http://www.w3.org/2000/svg">
    <path fill-rule="evenodd" clip-rule="evenodd"
          d="M10.9977 2.92638C10.9977 2.68878 11.0348 2.53963 11.1045 2.40926C11.1742 2.27889 11.2766 2.17658 11.4069 2.10685C11.5373 2.03713 11.6864 2 11.924 2H12.0713C12.3089 2 12.458 2.03713 12.5884 2.10685C12.7188 2.17658 12.8211 2.27889 12.8908 2.40926C12.9605 2.53963 12.9977 2.68878 12.9977 2.92638V14.9194L16.4186 12.1814C16.772 11.8982 17.2881 11.9552 17.5712 12.3086L17.8276 12.6286C18.0935 12.9605 18.04 13.4451 17.7081 13.711L17.6224 13.7809L12.6224 17.7809C12.2571 18.073 11.7382 18.073 11.373 17.7809L6.28859 13.711C5.95671 13.4451 5.90321 12.9605 6.1691 12.6286L6.42545 12.3086C6.7086 11.9552 7.22466 11.8982 7.5781 12.1814L8.49836 12.9199L10.9977 14.9194V2.92638ZM2 20C1.44772 20 1 20.4477 1 21C1 21.5523 1.44772 22 2 22H22C22.5523 22 23 21.5523 23 21C23 20.4477 22.5523 20 22 20H2Z"
          fill="#FFFFFF" fill-opacity="1"/>
</svg>
