<svg xmlns="http://www.w3.org/2000/svg" width="24px" height="24px" viewBox="0 0 32 32">
    <path
        d="M25.761 17.282l-2.165-2.467 0.302-3.266-3.204-0.728-1.677-2.822-3.017 1.296-3.017-1.296-1.677 2.822-3.204 0.719 0.302 3.266-2.165 2.476 2.165 2.467-0.302 3.274 3.204 0.728 1.677 2.822 3.017-1.304 3.017 1.296 1.677-2.822 3.204-0.728-0.302-3.266 2.165-2.467zM16 22c-0.736 0-1.333-0.592-1.333-1.333v0c0-0.736 0.592-1.333 1.333-1.333v0c0.736 0 1.333 0.592 1.333 1.333v0c0 0.736-0.592 1.333-1.333 1.333v0zM16 18c-0.736 0-1.333-0.591-1.333-1.346v-2.642c0-0.743 0.592-1.346 1.333-1.346v0c0.736 0 1.333 0.591 1.333 1.346v2.642c0 0.743-0.592 1.346-1.333 1.346v0z"
        fill="var(--regular-text)" fill-opacity="1"></path>
</svg>
