<svg xmlns="http://www.w3.org/2000/svg" width="24px" height="24px" viewBox="0 0 32 32">
  <path
    d="M11.136 15.617v3.432c0 0 3.254-0.004 4.579-0.004-0.717 2.225-1.833 3.437-4.579 3.437-2.779 0-4.947-2.305-4.947-5.148s2.169-5.148 4.947-5.148c1.469 0 2.418 0.528 3.288 1.265 0.697-0.713 0.639-0.815 2.411-2.527-1.505-1.402-3.505-2.256-5.699-2.256-4.678 0-8.47 3.88-8.47 8.667s3.792 8.667 8.47 8.667c6.992 0 8.701-6.23 8.134-10.383h-8.134zM26.398 15.789v-3.003h-2.096v3.003h-3.019v2.145h3.019v3.089h2.096v-3.089h2.935v-2.145h-2.935z"
    fill="var(--regular-text)" fill-opacity="1"></path>
</svg>
