<svg height="33" viewBox="-0.5 0 72 33" width="72" xmlns="http://www.w3.org/2000/svg">
    <path
        d="M45.108 29.93c-0.782-0.087-2.245 0.103-3.561-0.488-4.471-2.009-2.874-9.109-4.417-10.917-0.19-0.222-0.48-0.332-0.771-0.301-1.851 0.193-2.526-0.28-2.683-0.317 0.704-1.489 1.999-3.856 3.154-3.949 1.37-0.111 1.369 1.082 1.362 1.648-0.002 0.134 0.116 0.237 0.249 0.218 0.695-0.1 2.506-0.553 2.164-2.552-0.416-2.432-4.187-2.607-6.311 0.888 0.522-1.864 1.088-3.712 1.678-5.38 3.807-0.108 6.941-2.027 7.19-5.090 0.171-2.102-1.408-2.967-3.365-3.020-4.324-0.117-6.383 2.949-7.436 5.43-2.931-1.564-6.263-4.239-10.651-4.424-5.232-0.221-7.405 4.719-7.913 6.451-0.056 0.191 0.143 0.336 0.299 0.209 1.259-1.031 4.521-2.833 7.973-2.833 3.565 0 6.737 1.497 9.613 2.469-0.278 0.87-0.612 1.998-0.974 3.269-1.025 2.56-5.109 12.619-5.994 12.652-0.377 0.064-0.743-0.104-0.68-0.746 0.502-2.379 1.834-5.075 2.249-8.143 0.619-4.044-3.279-3.725-3.279-3.725-2.909 0.106-5.191 3.593-6.937 7.016 1.039-3.252 2.372-6.485 2.372-6.485 0.051-0.17-0.041-0.343-0.209-0.388-0.396-0.106-1.752 0.672-4.023-0.054-0.208-0.066-0.433-0.019-0.497 0.195l-2.103 7.054c-1.705 3.462-3.244 4.572-4.377 4.572-0.848 0-0.367-1.614 0.121-3.554 0.554-2.197 1.395-4.807 1.768-5.935 0.071-0.197 0.135-0.386 0.189-0.566l0-0.001c0.439-1.46 0.243-2.377-2.089-2.377-2.418 0-5.576 2.184-7.032 3.404-0.456 0.382-0.007 1.069 0.513 0.784 1.79-0.98 4.361-3.147 3.45-0.525-0.736 2.215-2.455 7.236-2.567 8.92-0.105 1.588 0.933 3.665 3.21 3.693 2.273 0.028 4.041-1.659 5.738-4.547l-1.127 3.871c-0.063 0.21 0.086 0.412 0.303 0.412 0.392-0.001 1.857-0.535 3.823 0.047 0.216 0.064 0.448 0.018 0.514-0.203 0 0 0.113-0.667 0.328-1.719 0.717-1.685 4.506-10.378 6.533-10.692 1.657-0.257 1.197 1.394 1.042 1.895-0.566 1.826-1.908 4.856-2.328 7.619-0.249 1.632 0.285 3.405 2.77 3.315 2.418-0.088 4.199-2.534 5.526-5.439-0.568 2.176-1.020 3.941-1.222 4.726-0.065 0.251 0.112 0.487 0.368 0.493 0.353 0.008 1.798-0.607 3.653 0.053 0.267 0.095 0.567-0.015 0.624-0.3 0.249-1.233 0.859-4.159 1.693-7.573 2.179 2.899-0.218 11.75 7.017 13.537 2.592 0.546 4.562-0.605 5.403-1.762 0.244-0.336 0.056-0.79-0.345-0.835zM70.4 16.109c-0.007-4.083-4.585-4.345-5.159-4.362-0.039-0.001-0.059-0.001-0.059-0.001-5.548 0-8.389 3.201-8.749 8.821-0.006 0.105-0.009 0.209-0.011 0.311-0.523-0.007-1.015-0.028-1.478-0.060 0.389-1.002 0.646-2.122 0.725-3.363 0.225-3.519-1.181-5.871-4.623-5.905-2.602-0.026-4.55 2.027-4.705 4.883-0.121 2.235 1.35 3.954 3.927 4.931-0.755 2.242-2.111 3.932-3.814 3.937-1.995 0.006-2.355-2.377-1.807-5.89 0.291-1.867 0.815-3.955 1.405-6.043 1.228-4.341 2.674-8.31 3.401-9.645 0.089-0.163-0.051-0.351-0.232-0.36-0.408-0.021-1.982 0.347-3.803-0.3-0.2-0.071-0.429 0.033-0.506 0.239-0.486 1.296-1.915 5.211-3.070 9.503-0.562 2.088-1.085 4.197-1.384 6.269-0.815 5.658 1.635 7.637 4.666 8.007s7.027-1.234 9.131-4.836c0.783 0.065 1.539 0.118 2.265 0.156 0.428 2.701 2.193 4.579 4.888 4.606 1.995 0.020 3.533-0.856 3.635-1.503 0.093-0.591-0.367-0.653-0.732-0.653-0.445 0-0.972 0.601-1.788 0.601-0.582 0-1.955-0.48-2.014-2.997 0.427 0 0.885-0.026 1.361-0.077 3.050-0.33 6.836-1.728 8.097-4.357 0.276-0.575 0.432-1.209 0.432-1.904 0-0.003-0-0.006-0-0.009zM41.564 3.896c-0.151 0.611-1.013 3.045-5 3.297 0.791-2 1.614-3.598 2.429-4.423 1.244-1.26 2.923-0.297 2.571 1.125zM66.611 16.050c-0.376 2.247-1.954 4.125-6.043 4.681 0.213-3.413 1.021-7.485 3.734-7.485 2.018 0 2.498 1.678 2.31 2.805zM47.867 16.415c0.081-1.495 0.8-2.429 1.767-2.42 1.31 0.013 1.404 1.925 1.264 4.109-0.040 0.617-0.123 1.23-0.246 1.826-2.366-0.989-2.839-2.526-2.785-3.515zM6.978 8.008c1.413 0.659 3.481-0.041 4.62-1.563s0.916-3.289-0.496-3.948c-1.413-0.659-3.481 0.041-4.62 1.563s-0.916 3.289 0.496 3.948z"
        fill="var(--regular-text)" fill-opacity="1"></path>
</svg>
