<svg xmlns="http://www.w3.org/2000/svg" width="24px" height="24px" viewBox="0 0 32 32">
  <path
    d="M15.983 6c-2.892 0-3.255 0.012-4.391 0.064-1.134 0.052-1.908 0.232-2.585 0.495-0.7 0.272-1.294 0.636-1.886 1.228s-0.956 1.186-1.228 1.886c-0.263 0.678-0.443 1.452-0.495 2.585-0.052 1.136-0.064 1.498-0.064 4.391s0.012 3.255 0.064 4.391c0.052 1.134 0.232 1.908 0.495 2.585 0.272 0.7 0.636 1.294 1.228 1.886s1.186 0.956 1.886 1.228c0.677 0.263 1.452 0.443 2.585 0.495 1.136 0.052 1.499 0.064 4.391 0.064s3.255-0.012 4.391-0.064c1.134-0.052 1.908-0.232 2.585-0.495 0.7-0.272 1.294-0.636 1.886-1.228s0.956-1.186 1.228-1.886c0.263-0.677 0.443-1.452 0.495-2.585 0.052-1.136 0.064-1.498 0.064-4.391s-0.012-3.255-0.064-4.391c-0.052-1.134-0.232-1.908-0.495-2.585-0.272-0.7-0.636-1.294-1.228-1.886s-1.186-0.956-1.886-1.228c-0.677-0.263-1.452-0.443-2.585-0.495-1.136-0.052-1.499-0.064-4.391-0.064zM15.983 7.919c2.844 0 3.18 0.011 4.303 0.062 1.038 0.047 1.602 0.221 1.977 0.367 0.497 0.193 0.852 0.424 1.225 0.797s0.604 0.727 0.797 1.225c0.146 0.375 0.319 0.939 0.367 1.978 0.051 1.123 0.062 1.46 0.062 4.303s-0.011 3.18-0.062 4.303c-0.047 1.038-0.221 1.602-0.367 1.978-0.193 0.497-0.424 0.852-0.797 1.225s-0.727 0.603-1.225 0.797c-0.375 0.146-0.939 0.319-1.977 0.367-1.123 0.051-1.46 0.062-4.303 0.062s-3.181-0.011-4.303-0.062c-1.038-0.047-1.602-0.221-1.977-0.367-0.497-0.193-0.852-0.424-1.225-0.797s-0.603-0.727-0.797-1.225c-0.146-0.375-0.319-0.939-0.367-1.978-0.051-1.123-0.062-1.46-0.062-4.303s0.011-3.18 0.062-4.303c0.047-1.038 0.221-1.602 0.367-1.977 0.193-0.497 0.424-0.852 0.797-1.225s0.727-0.603 1.225-0.797c0.375-0.146 0.939-0.319 1.977-0.367 1.123-0.051 1.46-0.062 4.303-0.062zM15.983 11.181c-3.020 0-5.469 2.449-5.469 5.469s2.448 5.469 5.469 5.469 5.469-2.448 5.469-5.469c0-3.020-2.448-5.469-5.469-5.469zM15.983 20.2c-1.961 0-3.55-1.589-3.55-3.55s1.589-3.55 3.55-3.55c1.961 0 3.55 1.589 3.55 3.55s-1.589 3.55-3.55 3.55zM22.946 10.965c0 0.706-0.572 1.278-1.278 1.278s-1.278-0.572-1.278-1.278c0-0.706 0.572-1.278 1.278-1.278s1.278 0.572 1.278 1.278z"
    fill="var(--regular-text)" fill-opacity="1"></path>
</svg>
