<svg class="link" height="24px" version="1.1" viewBox="0 0 32 32" width="24px" xmlns="http://www.w3.org/2000/svg">
    <path
        d="M5.2 16.667c0-2.28 1.853-4.133 4.133-4.133h5.333v-2.533h-5.333c-3.68 0-6.667 2.987-6.667 6.667s2.987 6.667 6.667 6.667h5.333v-2.533h-5.333c-2.28 0-4.133-1.853-4.133-4.133v0zM10.667 18h10.667v-2.667h-10.667v2.667zM22.667 10h-5.333v2.533h5.333c2.28 0 4.133 1.853 4.133 4.133s-1.853 4.133-4.133 4.133h-5.333v2.533h5.333c3.68 0 6.667-2.987 6.667-6.667s-2.987-6.667-6.667-6.667v0z"
        fill="var(--regular-text)" fill-opacity="1"></path>
</svg>
