<svg height="24px" viewBox="0 0 32 32" width="24px" xmlns="http://www.w3.org/2000/svg">
    <path
        d="M3.339 12.363h5.197v16.304h-5.197v-16.304zM5.806 10.324h-0.038c-1.881 0-3.101-1.246-3.101-2.826 0-1.611 1.256-2.831 3.175-2.831 1.918 0 3.097 1.217 3.134 2.826 0 1.58-1.217 2.831-3.17 2.831zM29.333 28.667h-5.894v-8.437c0-2.208-0.922-3.716-2.949-3.716-1.551 0-2.413 1.017-2.814 1.998-0.15 0.352-0.127 0.842-0.127 1.332v8.823h-5.839c0 0 0.075-14.945 0-16.304h5.839v2.559c0.345-1.119 2.211-2.715 5.188-2.715 3.694 0 6.596 2.345 6.596 7.395v9.066h0z"
        fill="var(--base)" fill-opacity="1"></path>
</svg>
