<svg height="24px" viewBox="0 0 32 32" width="24px" xmlns="http://www.w3.org/2000/svg">
    <path
        d="M16 6c-8.485 0-13.333 9.482-13.333 10.667s4.848 10.667 13.333 10.667c8.485 0 13.333-9.482 13.333-10.667s-4.849-10.667-13.333-10.667v0zM16 23.778c-4.017 0-7.273-3.184-7.273-7.111s3.256-7.111 7.273-7.111c4.016 0 7.273 3.184 7.273 7.111s-3.256 7.111-7.273 7.111v0zM16 11.926c-2.678 0-4.848 2.123-4.848 4.741s2.171 4.741 4.848 4.741c2.677 0 4.848-2.123 4.848-4.741s-2.171-4.741-4.848-4.741v0z"
        fill="var(--base)" fill-opacity="1"></path>
</svg>
