<svg xmlns="http://www.w3.org/2000/svg" width="24px" height="24px" viewBox="0 0 32 32">
    <path
        d="M16.25 8.245c1.407 0 2.552 1.134 2.552 2.528 0 1.393-1.145 2.527-2.552 2.527-1.406 0-2.552-1.134-2.552-2.527 0-1.394 1.146-2.528 2.552-2.528v0zM16.25 16.877c3.4 0 6.163-2.738 6.163-6.104 0-3.368-2.764-6.107-6.163-6.107s-6.163 2.739-6.163 6.107c0 3.366 2.764 6.104 6.163 6.104zM18.743 21.858c1.255-0.283 2.465-0.775 3.579-1.469 0.843-0.527 1.098-1.631 0.566-2.467-0.531-0.837-1.645-1.089-2.49-0.563-2.524 1.573-5.775 1.572-8.298 0-0.845-0.527-1.959-0.275-2.489 0.563-0.531 0.836-0.278 1.94 0.565 2.467 1.114 0.693 2.324 1.185 3.579 1.469l-3.446 3.414c-0.704 0.699-0.704 1.831 0.001 2.53 0.353 0.349 0.815 0.524 1.276 0.524s0.925-0.175 1.278-0.524l3.384-3.354 3.387 3.354c0.704 0.699 1.847 0.699 2.553 0s0.706-1.832 0-2.53l-3.446-3.414z"
        fill="var(--regular-text)" fill-opacity="1"></path>
</svg>
