<svg xmlns="http://www.w3.org/2000/svg" width="24px" height="24px" viewBox="0 0 32 32">
    <path d="M16 6c-5.867 0-10.667 4.8-10.667 10.667 0 4.4 2.667 8.133 6.4 9.733 0-0.8 0-1.6 0.133-2.4 0.267-0.8 1.333-5.867 1.333-5.867s-0.4-0.667-0.4-1.733c0-1.6 0.933-2.8 2-2.8 0.933 0 1.467 0.667 1.467 1.6s-0.667 2.4-0.933 3.733c-0.267 1.067 0.533 2 1.733 2 2 0 3.333-2.533 3.333-5.733 0-2.4-1.6-4.133-4.4-4.133-3.2 0-5.2 2.4-5.2 5.067 0 0.933 0.267 1.6 0.667 2.133 0.133 0.267 0.267 0.267 0.133 0.533 0 0.133-0.133 0.667-0.267 0.8-0.133 0.267-0.267 0.4-0.533 0.267-1.467-0.667-2.133-2.267-2.133-4.133 0-3.067 2.533-6.667 7.6-6.667 4.133 0 6.8 2.933 6.8 6.133 0 4.133-2.267 7.333-5.733 7.333-1.2 0-2.267-0.667-2.667-1.333 0 0-0.667 2.4-0.8 2.933-0.133 0.667-0.533 1.467-0.933 2v0l-0.133 0.267c0.933 0.267 2 0.4 3.067 0.4 5.867 0 10.667-4.8 10.667-10.667s-4.667-10.133-10.533-10.133v0z"
          fill="var(--regular-text)" fill-opacity="1"></path>
</svg>
