<svg height="24px" viewBox="0 0 32 32" width="24px" xmlns="http://www.w3.org/2000/svg">
    <path
        d="M29.333 15.757c0-1.786-1.438-3.239-3.205-3.239-0.765 0-1.468 0.273-2.019 0.727-1.954-1.241-4.434-1.989-7.093-2.148l1.387-4.431 3.811 0.907c0.1 1.402 1.26 2.512 2.672 2.512 1.477 0 2.68-1.215 2.68-2.71 0-1.493-1.203-2.709-2.68-2.709-1.033 0-1.932 0.595-2.379 1.463l-4.428-1.054c-0.371-0.088-0.746 0.127-0.861 0.495l-1.722 5.5c-2.864 0.071-5.557 0.821-7.654 2.135-0.544-0.43-1.228-0.688-1.971-0.688-1.768-0-3.205 1.453-3.205 3.239 0 1.104 0.55 2.080 1.388 2.665-0.035 0.257-0.053 0.516-0.053 0.777 0 2.233 1.284 4.31 3.616 5.848 2.235 1.475 5.193 2.287 8.329 2.287s6.094-0.812 8.329-2.287c2.332-1.538 3.616-3.615 3.616-5.848 0-0.238-0.016-0.475-0.045-0.71 0.893-0.575 1.488-1.585 1.488-2.732zM24.887 6.139c0.675 0 1.224 0.555 1.224 1.236s-0.549 1.237-1.224 1.237-1.224-0.555-1.224-1.237c0-0.681 0.549-1.236 1.224-1.236zM10.228 17.76c0-1.006 0.836-1.851 1.832-1.851s1.805 0.845 1.805 1.851c0 1.007-0.808 1.824-1.805 1.824s-1.832-0.817-1.832-1.824zM20.39 23.125c-0.928 0.937-2.36 1.393-4.377 1.393-0.004 0-0.009-0.001-0.014-0.001s-0.009 0.001-0.014 0.001c-2.017 0-3.447-0.456-4.375-1.393-0.285-0.288-0.285-0.754 0-1.041s0.745-0.287 1.030 0c0.64 0.647 1.734 0.962 3.345 0.962 0.005 0 0.010 0.001 0.014 0.001s0.010-0.001 0.014-0.001c1.611 0 2.706-0.315 3.347-0.962 0.285-0.288 0.746-0.287 1.030 0s0.284 0.754 0 1.041zM19.967 19.585c-0.997 0-1.834-0.817-1.834-1.824s0.837-1.851 1.834-1.851c0.997 0 1.805 0.844 1.805 1.851s-0.808 1.824-1.805 1.824z"
        fill="var(--base)" fill-opacity="1"></path>
</svg>
