<svg class="rovergulf" xmlns="http://www.w3.org/2000/svg"
     width="200.000000pt" height="200.000000pt" viewBox="0 0 200.000000 200.000000"
     preserveAspectRatio="xMidYMid meet">
  <g transform="translate(0.000000,200.000000) scale(0.100000,-0.100000)"
     fill="var(--regular-text)" stroke="none">
    <path d="M940 1984 c-14 -10 -74 -66 -135 -126 l-110 -108 -175 0 c-263 0
-270 -7 -270 -277 l0 -168 -115 -115 c-178 -179 -178 -196 -5 -373 l120 -122
0 -171 c0 -267 7 -274 270 -274 l175 -1 122 -118 c178 -174 189 -174 367 0
l121 119 168 0 c270 0 277 7 277 270 l0 175 115 115 c178 179 179 196 5 373
l-120 122 0 170 c0 267 -8 275 -275 275 l-170 0 -109 109 c-61 60 -118 114
-129 120 -34 22 -99 24 -127 5z m195 -375 c288 -65 489 -317 487 -609 -1 -47
-3 -96 -6 -109 -49 -228 -195 -401 -402 -476 -85 -31 -140 -39 -234 -37 -334
9 -597 278 -602 615 -2 134 29 239 108 359 96 145 264 247 434 265 30 3 56 6
58 8 6 5 110 -6 157 -16z"/>
    <path d="M722 1369 c-124 -26 -126 -205 -4 -236 71 -18 136 20 151 89 20 91
-55 167 -147 147z"/>
    <path d="M1213 1368 c-100 -26 -116 -166 -27 -225 33 -21 96 -21 129 1 120 78
37 261 -102 224z"/>
    <path d="M505 939 c24 -206 184 -382 390 -427 50 -11 197 -7 240 7 51 17 123
49 143 64 62 47 141 140 169 197 34 72 39 92 49 168 l6 52 -502 0 -502 0 7
-61z"/>
  </g>
</svg>
