<svg fill="none" height="24" viewBox="0 0 24 24" width="24" xmlns="http://www.w3.org/2000/svg">
    <path clip-rule="evenodd" d="M10.1667 2.83333C10.1667 1.82081 10.9875 1 12 1C13.0125 1 13.8333 1.82081 13.8333 2.83333C13.8333 4.58273 15.9484 5.45884 17.1854 4.22183C17.9014 3.50586 19.0622 3.50586 19.7782 4.22183C20.4941 4.93779 20.4941 6.09859 19.7782 6.81455C18.5412 8.05156 19.4173 10.1667 21.1667 10.1667C22.1792 10.1667 23 10.9875 23 12C23 13.0125 22.1792 13.8333 21.1667 13.8333C19.4173 13.8333 18.5412 15.9484 19.7782 17.1854C20.4941 17.9014 20.4941 19.0622 19.7782 19.7782C19.0622 20.4941 17.9014 20.4941 17.1854 19.7782C15.9484 18.5412 13.8333 19.4173 13.8333 21.1667C13.8333 22.1792 13.0125 23 12 23C10.9875 23 10.1667 22.1792 10.1667 21.1667C10.1667 19.4173 8.05156 18.5412 6.81454 19.7782C6.09858 20.4941 4.93778 20.4941 4.22182 19.7782C3.50586 19.0622 3.50586 17.9014 4.22182 17.1854C5.45883 15.9484 4.58273 13.8333 2.83333 13.8333C1.82081 13.8333 1 13.0125 1 12C1 10.9875 1.82081 10.1667 2.83333 10.1667C4.58273 10.1667 5.45883 8.05156 4.22182 6.81455C3.50586 6.09859 3.50586 4.93779 4.22182 4.22183C4.93778 3.50586 6.09859 3.50586 6.81455 4.22183C8.05156 5.45884 10.1667 4.58274 10.1667 2.83333ZM12 17C14.7614 17 17 14.7614 17 12C17 9.23858 14.7614 7 12 7C9.23858 7 7 9.23858 7 12C7 14.7614 9.23858 17 12 17Z"
          fill="#FFFFFF"
          fill-opacity="1" fill-rule="evenodd"/>
</svg>
