<svg width="24" height="24" viewBox="0 0 24 24" fill="none" xmlns="http://www.w3.org/2000/svg">
  <path fill-rule="evenodd" clip-rule="evenodd"
        d="M12.5258 19.6326C12.2041 19.4298 11.7959 19.4298 11.4743 19.6326L6.37805 22.8449C5.63357 23.3142 4.69615 22.6486 4.88305 21.7835L6.23302 15.5345C6.30826 15.1862 6.19409 14.8238 5.9333 14.5832L1.32382 10.3307C0.689069 9.7451 1.04368 8.67791 1.90012 8.59636L7.91307 8.02379C8.2806 7.9888 8.59846 7.75086 8.73811 7.40619L11.0817 1.62203C11.4178 0.792656 12.5823 0.792657 12.9183 1.62203L15.2619 7.40619C15.4016 7.75086 15.7194 7.9888 16.087 8.02379L22.0999 8.59636C22.9563 8.67791 23.311 9.7451 22.6762 10.3307L18.0667 14.5832C17.8059 14.8238 17.6918 15.1862 17.767 15.5345L19.117 21.7835C19.3039 22.6486 18.3665 23.3142 17.622 22.8449L12.5258 19.6326Z"
        fill="#FFFFFF" fill-opacity="1"/>
</svg>
