<svg height="24px" viewBox="0 0 32 32" width="24px" xmlns="http://www.w3.org/2000/svg">
    <path
        d="M27.533 6.15l-23.621 9.233c-1.612 0.656-1.603 1.567-0.294 1.973l5.891 1.863 2.254 7.004c0.274 0.767 0.139 1.071 0.933 1.071 0.613 0 0.885-0.283 1.226-0.621 0.217-0.215 1.506-1.485 2.945-2.904l6.128 4.588c1.128 0.63 1.942 0.304 2.223-1.061l4.023-19.211c0.412-1.673-0.629-2.432-1.708-1.936zM10.434 18.792l13.279-8.49c0.663-0.407 1.271-0.188 0.772 0.261l-11.37 10.397-0.443 4.785-2.238-6.952z"
        fill="var(--base)" fill-opacity="1"></path>
</svg>
