<svg fill="none" height="24" viewBox="0 0 24 24" width="24" xmlns="http://www.w3.org/2000/svg">
    <path
        d="M3 4.5V4C3 3.44772 3.44772 3 4 3H8.5L8.94721 2.10557C9.286 1.428 9.97852 1 10.7361 1H13.2639C14.0215 1 14.714 1.428 15.0528 2.10557L15.5 3H20C20.5523 3 21 3.44772 21 4V4.5C21 5.05228 20.5523 5.5 20 5.5H4C3.44772 5.5 3 5.05228 3 4.5Z"
        fill="#FFFFFF" fill-opacity="1"/>
    <path
        d="M17.9019 7H6.09813C5.50898 7 5.04751 7.50676 5.1025 8.09334L6.245 20.28C6.38953 21.8216 7.68354 23 9.2319 23H14.7681C16.3165 23 17.6105 21.8216 17.755 20.28L18.8975 8.09334C18.9525 7.50676 18.491 7 17.9019 7Z"
        fill="#FFFFFF" fill-opacity="1"/>
</svg>
