<svg xmlns="http://www.w3.org/2000/svg" width="24px" height="24px" viewBox="0 0 32 32">
  <path
    d="M24.133 11.333c0.933-0.533 1.6-1.467 1.867-2.4-0.8 0.533-1.733 0.8-2.8 1.067-0.8-0.8-2-1.333-3.2-1.333-2.4 0-4.4 2-4.4 4.4 0 0.4 0 0.667 0.133 0.933-3.6-0.133-6.933-1.867-9.067-4.533-0.4 0.667-0.533 1.467-0.533 2.267 0 1.467 0.8 2.8 2 3.6-0.667 0-1.333-0.267-2-0.533v0c0 2.133 1.467 3.867 3.467 4.267-0.267 0-0.667 0.133-1.067 0.133-0.267 0-0.533 0-0.8-0.133 0.533 1.733 2.133 3.067 4.133 3.067-1.467 1.2-3.333 1.867-5.467 1.867h-1.067c1.867 1.2 4 1.867 6.267 2h1.067c7.6-0.4 11.867-6.8 11.867-12.4v-0.533c0.8-0.667 1.6-1.333 2.133-2.267v0c-0.8 0.133-1.6 0.4-2.533 0.533v0z"
    fill="var(--regular-text)" fill-opacity="1"></path>
</svg>
