<svg fill="none" height="24" viewBox="0 0 24 24" width="24" xmlns="http://www.w3.org/2000/svg">
    <path
        d="M14.08 13.232C13.7969 13.1188 13.8453 12.7191 14.1304 12.6108C16.3924 11.7514 18 9.56345 18 7C18 3.68629 15.3137 1 12 1C8.68629 1 6 3.68629 6 7C6 9.56345 7.60759 11.7514 9.86961 12.6108C10.1547 12.7191 10.2031 13.1188 9.91995 13.232L6.77166 14.4913C4.49371 15.4025 3 17.6088 3 20.0622V21C3 22.1046 3.89543 23 6 23H18C20.1046 23 21 22.1046 21 21V20.0622C21 17.6088 19.5063 15.4025 17.2283 14.4913L14.08 13.232Z"
        fill="var(--regular-text)" fill-opacity="1"/>
</svg>
