<svg height="24px" viewBox="0 0 32 32" width="24px" xmlns="http://www.w3.org/2000/svg">
    <path
        d="M17.63 22.797c0-0.8 0.8-1.6 1.6-1.6s2.171 1.372 3.199 2.399c0.8 0.8 0.8 0.8 1.6 0.8h2.399c0 0 1.6-0.061 1.6-1.6 0-0.5-0.548-1.348-2.399-3.199-1.6-1.6-2.42-0.773 0-3.999 1.474-1.964 2.547-3.744 2.363-4.257-0.176-0.49-4.276-1.271-4.762-0.541-1.6 2.399-1.893 2.987-2.399 3.999-0.8 1.6-0.879 2.399-1.6 2.399-0.727 0-0.8-1.552-0.8-2.399 0-2.644 0.383-4.514-0.8-4.799h-2.399c-1.288 0-2.399 0.8-2.399 0.8s-0.993 0.774-0.8 0.8c0.238 0.032 1.6-0.331 1.6 0.8v1.6c0 0 0.007 3.199-0.8 3.199-0.8 0-2.399-3.199-3.999-5.599-0.628-0.941-0.8-0.8-1.6-0.8-0.857 0-1.599 0.034-2.399 0.034s-0.902 0.509-0.8 0.766c1.6 3.999 2.749 6.511 5.788 9.675 2.787 2.903 4.649 3.057 6.209 3.122 0.4 0.017 0 0 0.8 0s0.8-1.153 0.8-1.6z"
        fill="var(--regular-text)" fill-opacity="1"></path>
</svg>
